{"asset":{"version":"2.0","generator":"Blockbench 4.8.3 glTF exporter"},"scenes":[{"nodes":[6],"name":"blockbench_export"}],"scene":0,"nodes":[{"translation":[0,0,6.938893903907228e-18],"name":"base1","mesh":0},{"name":"cube","mesh":1},{"translation":[-0.03125,0,0.0625],"name":"cube","mesh":2},{"translation":[0.125,0,-0.03125],"name":"cube","mesh":3},{"translation":[0.34375,0,-0.056249999999999994],"name":"base2","children":[1,2,3]},{"translation":[-0.25,0.03125,0.024999999999999994],"name":"Key","children":[0,4]},{"children":[5]}],"bufferViews":[{"buffer":0,"byteOffset":0,"byteLength":1536,"target":34962,"byteStride":12},{"buffer":0,"byteOffset":1536,"byteLength":1536,"target":34962,"byteStride":12},{"buffer":0,"byteOffset":3072,"byteLength":1024,"target":34962,"byteStride":8},{"buffer":0,"byteOffset":4096,"byteLength":384,"target":34963},{"buffer":0,"byteOffset":4480,"byteLength":288,"target":34962,"byteStride":12},{"buffer":0,"byteOffset":4768,"byteLength":288,"target":34962,"byteStride":12},{"buffer":0,"byteOffset":5056,"byteLength":192,"target":34962,"byteStride":8},{"buffer":0,"byteOffset":5248,"byteLength":72,"target":34963},{"buffer":0,"byteOffset":5320,"byteLength":288,"target":34962,"byteStride":12},{"buffer":0,"byteOffset":5608,"byteLength":288,"target":34962,"byteStride":12},{"buffer":0,"byteOffset":5896,"byteLength":192,"target":34962,"byteStride":8},{"buffer":0,"byteOffset":6088,"byteLength":72,"target":34963},{"buffer":0,"byteOffset":6160,"byteLength":288,"target":34962,"byteStride":12},{"buffer":0,"byteOffset":6448,"byteLength":288,"target":34962,"byteStride":12},{"buffer":0,"byteOffset":6736,"byteLength":192,"target":34962,"byteStride":8},{"buffer":0,"byteOffset":6928,"byteLength":72,"target":34963}],"buffers":[{"byteLength":7000,"uri":"data:application/octet-stream;base64,"}],"accessors":[{"bufferView":0,"componentType":5126,"count":128,"max":[0.125,0.03125,0.125],"min":[-0.125,-0.03125,-0.125],"type":"VEC3"},{"bufferView":1,"componentType":5126,"count":128,"max":[1,1,1],"min":[-1,-1,-1],"type":"VEC3"},{"bufferView":2,"componentType":5126,"count":128,"max":[0.6875,0.6875],"min":[0,0],"type":"VEC2"},{"bufferView":3,"componentType":5123,"count":192,"max":[127],"min":[0],"type":"SCALAR"},{"bufferView":4,"componentType":5126,"count":24,"max":[0.03125,0.03125,0.03125],"min":[-0.03125,-0.03125,-0.03125],"type":"VEC3"},{"bufferView":5,"componentType":5126,"count":24,"max":[1,1,1],"min":[-1,-1,-1],"type":"VEC3"},{"bufferView":6,"componentType":5126,"count":24,"max":[0.4375,0.4375],"min":[0.0625,0],"type":"VEC2"},{"bufferView":7,"componentType":5123,"count":36,"max":[23],"min":[0],"type":"SCALAR"},{"bufferView":8,"componentType":5126,"count":24,"max":[0.1875,0.03125,0.03125],"min":[-0.1875,-0.03125,-0.03125],"type":"VEC3"},{"bufferView":9,"componentType":5126,"count":24,"max":[1,1,1],"min":[-1,-1,-1],"type":"VEC3"},{"bufferView":10,"componentType":5126,"count":24,"max":[0.375,0.375],"min":[0,0],"type":"VEC2"},{"bufferView":11,"componentType":5123,"count":36,"max":[23],"min":[0],"type":"SCALAR"},{"bufferView":12,"componentType":5126,"count":24,"max":[0.03125,0.03125,0.0625],"min":[-0.03125,-0.03125,-0.0625],"type":"VEC3"},{"bufferView":13,"componentType":5126,"count":24,"max":[1,1,1],"min":[-1,-1,-1],"type":"VEC3"},{"bufferView":14,"componentType":5126,"count":24,"max":[0.375,0.4375],"min":[0,0.25],"type":"VEC2"},{"bufferView":15,"componentType":5123,"count":36,"max":[23],"min":[0],"type":"SCALAR"}],"materials":[{"pbrMetallicRoughness":{"metallicFactor":0,"roughnessFactor":1,"baseColorTexture":{"index":0}},"alphaMode":"MASK","alphaCutoff":0.05,"doubleSided":true},{"pbrMetallicRoughness":{"metallicFactor":0,"roughnessFactor":1,"baseColorTexture":{"index":1}},"alphaMode":"MASK","alphaCutoff":0.05,"doubleSided":true}],"textures":[{"sampler":0,"source":0,"name":"texture"},{"sampler":1,"source":1,"name":"texture"}],"samplers":[{"magFilter":9728,"minFilter":9728,"wrapS":33071,"wrapT":33071},{"magFilter":9728,"minFilter":9728,"wrapS":33071,"wrapT":33071}],"images":[{"mimeType":"image/png","uri":"data:image/png;base64,"},{"mimeType":"image/png","uri":"data:image/png;base64,"}],"meshes":[{"primitives":[{"mode":4,"attributes":{"POSITION":0,"NORMAL":1,"TEXCOORD_0":2},"indices":3,"material":0}]},{"primitives":[{"mode":4,"attributes":{"POSITION":4,"NORMAL":5,"TEXCOORD_0":6},"indices":7,"material":1}]},{"primitives":[{"mode":4,"attributes":{"POSITION":8,"NORMAL":9,"TEXCOORD_0":10},"indices":11,"material":1}]},{"primitives":[{"mode":4,"attributes":{"POSITION":12,"NORMAL":13,"TEXCOORD_0":14},"indices":15,"material":1}]}]}